<svg width="164" height="40" viewBox="0 0 164 40" fill="none" xmlns="http://www.w3.org/2000/svg">
<rect width="164" height="40" fill="white"/>
<g clip-path="url(#clip0_1709_3406)">
<path d="M37.0629 11.1829C36.9525 12.0948 36.8276 12.9758 36.5802 13.8306C36.1068 15.4662 35.3732 16.9604 34.3146 18.3054C33.3964 19.472 32.237 20.3476 31.1013 21.2583C30.3708 21.8441 29.6169 22.4001 28.8762 22.9731C28.7394 23.079 28.6272 23.1691 28.6933 23.4086C29.0304 24.6291 28.6405 25.6111 27.7071 26.4298C26.3285 27.639 24.818 28.6466 23.2107 29.5089C22.5869 29.8436 21.9271 30.1105 21.2143 30.1676C20.7769 30.2026 20.2496 30.037 20.0484 29.172C19.5271 29.7214 19.0384 30.2362 18.5501 30.7514C18.4635 30.8427 18.3722 30.9231 18.26 30.986C18.0353 31.1121 17.8323 31.0855 17.6664 30.9023C17.4861 30.703 17.4583 30.469 17.6136 30.237C17.6771 30.1421 17.7594 30.0589 17.84 29.9772C18.7153 29.0903 19.5872 28.1997 20.4714 27.3219C20.7319 27.0633 20.8831 26.7445 21.0514 26.4309C21.1173 26.3081 21.1073 26.2106 20.9781 26.141C20.3968 25.828 19.9673 25.3346 19.5165 24.8694C19.3726 24.7209 19.2636 24.7128 19.0878 24.8105C18.4482 25.1659 17.79 25.4809 17.0639 25.6167C16.1338 25.7906 15.5705 25.2727 15.6744 24.3317C15.695 24.1452 15.7427 23.96 15.7945 23.7791C15.9542 23.2202 16.2006 22.6973 16.4763 22.1894C16.5766 22.0045 16.5709 21.8799 16.4096 21.7255C15.9489 21.2845 15.484 20.8434 15.1704 20.2724C15.1141 20.1699 15.0359 20.1079 14.9151 20.1763C14.6347 20.335 14.3301 20.4512 14.0958 20.6889C12.7651 22.0388 11.4287 23.3829 10.1004 24.7352C9.60744 25.2371 9.50724 25.832 9.79767 26.3731C10.2205 27.1609 11.1939 27.3399 11.8727 26.745C12.1319 26.5178 12.3562 26.2491 12.6199 26.028C13.7077 25.1157 15.3364 25.6471 15.6682 27.0347C15.8359 27.7362 15.6499 28.3668 15.1346 28.8857C14.3892 29.6362 13.6429 30.3857 12.904 31.1427C12.4158 31.6427 12.2988 32.242 12.564 32.783C12.9718 33.6148 14.0068 33.7983 14.6962 33.1445C15.1746 32.691 15.6297 32.2123 16.0925 31.7422C16.2561 31.576 16.434 31.4709 16.6775 31.5311C17.0116 31.6137 17.1614 31.926 17.0048 32.2341C16.9626 32.3171 16.9136 32.4028 16.8479 32.4662C16.284 33.0102 15.7739 33.6089 15.1669 34.1099C14.4365 34.7127 13.0618 34.6942 12.3254 34.1108C11.3349 33.3263 11.1364 31.9336 11.7789 30.8572C11.8265 30.7775 11.889 30.7047 11.9544 30.6386C12.7419 29.8416 13.5321 29.0473 14.3201 28.2508C15.0615 27.5013 14.6261 26.8257 14.003 26.6311C13.6239 26.5126 13.3525 26.7554 13.0933 26.9799C12.7636 27.2655 12.5072 27.6291 12.1118 27.8474C11.0672 28.4241 9.61357 28.0925 8.97453 27.0221C8.34872 25.9738 8.60459 24.7099 9.41336 23.9236C10.2163 23.1429 10.9914 22.3328 11.7773 21.5342C11.8789 21.4309 11.9718 21.3189 12.0735 21.2056C11.2712 20.9324 11.0391 20.4419 11.264 19.5156C11.4664 18.6814 11.8481 17.9256 12.2711 17.1889C12.8753 16.1365 13.5439 15.1262 14.2879 14.1705C14.8112 13.4983 15.3218 12.8041 16.1778 12.5031C16.7374 12.3064 17.2931 12.2738 17.8528 12.4612C18.0485 12.5267 18.1593 12.4666 18.272 12.3156C18.9019 11.4719 19.5254 10.6229 20.1737 9.79364C20.8673 8.90638 21.531 7.98709 22.3722 7.23285C23.6841 6.0564 25.1758 5.18811 26.8536 4.65003C27.8154 4.34155 28.7978 4.15878 29.7992 4.04458C30.7348 3.93788 31.6714 3.97616 32.6046 4.00243C33.5038 4.02773 34.3952 4.14454 35.1901 4.6663C36.1707 5.30999 36.733 6.20931 36.9671 7.35165C37.0291 7.65433 36.9836 7.95949 37.0556 8.28206C37.0629 9.25553 37.0629 10.2044 37.0629 11.1829ZM35.6885 13.1494C35.7438 12.8932 35.7794 12.6304 35.8593 12.3822C35.9661 12.0508 35.8331 11.8416 35.6066 11.615C34.0081 10.0151 32.4213 8.40316 30.8311 6.7948C30.7209 6.68333 30.6023 6.57821 30.5341 6.43172C30.4332 6.21503 30.4689 6.01537 30.637 5.85469C30.8049 5.69418 31.0091 5.65452 31.2089 5.78833C31.3374 5.87436 31.4491 5.98885 31.5591 6.09992C32.9222 7.47644 34.283 8.85524 35.6464 10.2314C35.7523 10.3382 35.846 10.47 36.0145 10.5112C36.0844 10.3011 36.1014 10.1053 36.1052 9.90525C36.1184 9.20969 36.0485 8.51962 35.9888 7.82818C35.9316 7.16581 35.7005 6.58434 35.2608 6.08935C34.6875 5.44406 33.9658 5.15089 33.1139 5.08199C31.5508 4.95555 29.9985 4.96937 28.4592 5.29729C26.1787 5.78308 24.1984 6.82926 22.57 8.53191C21.9893 9.13909 21.4941 9.8166 20.976 10.4753C19.2707 12.6433 17.6464 14.8707 16.1952 17.222C15.3312 18.6219 15.8056 19.9939 17.1366 20.9616C17.2547 20.9003 17.2997 20.776 17.3669 20.6732C18.0046 19.6978 18.6597 18.7349 19.4396 17.8678C20.2742 16.9398 21.3657 16.6505 22.4658 17.0492C23.5337 17.4364 24.3342 18.5813 24.3364 19.7156C24.3381 20.6263 23.9136 21.3247 23.2652 21.9049C22.4214 22.6601 21.5002 23.3115 20.5568 23.9322C20.4573 23.9976 20.3227 24.0335 20.2908 24.1825C20.403 24.3776 20.5807 24.512 20.7339 24.6672C21.7554 25.7016 22.8999 25.8067 24.1229 25.0234C26.8106 23.3021 29.3401 21.3628 31.8156 19.3493C33.7889 17.7444 35.0616 15.681 35.6885 13.1494ZM21.0693 17.9381C20.6402 18.084 20.3117 18.3697 20.0259 18.7116C19.1238 19.7906 18.3348 20.9509 17.6337 22.1709C17.2423 22.8521 16.8654 23.5444 16.6912 24.3246C16.6263 24.6156 16.6852 24.6812 16.9591 24.6105C17.1501 24.5612 17.3444 24.5127 17.5244 24.4339C19.4417 23.5945 21.153 22.426 22.7142 21.0358C23.4097 20.4164 23.5292 19.622 23.1315 18.9013C22.7074 18.1327 21.8833 17.7343 21.0693 17.9381ZM26.1733 24.8769C25.633 25.233 25.0972 25.5963 24.5513 25.9434C23.903 26.3556 23.2038 26.5944 22.4237 26.526C22.3005 26.5152 22.1729 26.5039 22.0946 26.643C21.6929 27.356 21.2917 28.0683 21.113 28.8816C21.0658 29.0965 21.1603 29.1597 21.3469 29.1144C21.6095 29.0506 21.869 28.9755 22.1179 28.8643C23.8646 28.0832 25.4115 26.9874 26.8849 25.7759C27.3036 25.4316 27.6636 25.0396 27.7661 24.4788C27.8039 24.2722 27.8537 24.0502 27.6812 23.8257C27.1825 24.1738 26.6966 24.5129 26.1733 24.8769ZM15.4784 16.4687C16.1318 15.4738 16.7851 14.4789 17.4449 13.4741C17.2142 13.337 16.9989 13.3691 16.7862 13.4138C16.234 13.5299 15.8509 13.8992 15.506 14.3143C14.7221 15.2579 14.0331 16.2711 13.3992 17.3217C12.9281 18.1025 12.4828 18.899 12.2547 19.796C12.1669 20.141 12.2153 20.1888 12.5642 20.1052C13.3132 19.9259 13.9675 19.5342 14.6311 19.1628C14.7719 19.084 14.8023 18.9624 14.7892 18.8164C14.7126 17.9589 14.9888 17.2053 15.4784 16.4687Z" fill="url(#paint0_linear_1709_3406)"/>
<path d="M5.0625 28.7407C5.23625 28.4548 5.31487 28.1508 5.52131 27.9033C6.07227 27.2429 6.7554 26.9977 7.5998 27.0355C8.54096 27.0776 9.4856 27.9027 9.67327 28.8519C9.9934 30.4712 8.82996 31.7464 7.40696 31.7793C6.28195 31.8053 5.24295 30.9123 5.07049 29.9327C5.0625 29.5311 5.0625 29.1507 5.0625 28.7407ZM6.41941 30.3398C6.53114 30.4522 6.65823 30.5425 6.80049 30.6111C7.32276 30.8632 7.96927 30.738 8.34729 30.3112C8.77045 29.8335 8.82493 29.1775 8.48496 28.6534C8.16437 28.1591 7.53701 27.9343 6.97893 28.1084C6.13909 28.3706 5.67313 29.477 6.41941 30.3398Z" fill="url(#paint1_linear_1709_3406)"/>
<path d="M31.0574 16.5134C29.7519 17.7959 28.2196 18.226 26.508 17.7C24.7939 17.1733 23.7542 15.9515 23.393 14.1694C22.8832 11.6546 24.7474 9.14148 27.2707 8.84244C29.552 8.5721 31.8056 10.128 32.2315 12.5108C32.5033 14.0312 32.0969 15.3579 31.0574 16.5134ZM30.8706 11.6265C30.0778 10.2504 28.6633 9.6288 27.1887 9.88078C25.4977 10.1698 24.2582 11.7257 24.3194 13.5153C24.3894 15.5615 26.35 17.2197 28.3381 16.8561C30.7755 16.4103 32.0091 13.9053 30.8706 11.6265Z" fill="url(#paint2_linear_1709_3406)"/>
<path d="M26.8839 15.8362C25.8139 15.3682 25.23 14.5506 25.1983 13.4097C25.1624 12.1138 26.0408 10.9853 27.3361 10.7616C28.7653 10.5148 29.9757 11.3289 30.3528 12.7265C30.7577 14.2277 29.6659 15.8158 28.1322 15.9799C27.7079 16.0253 27.3061 15.9779 26.8839 15.8362ZM27.7844 14.9874C27.9085 14.9796 28.036 14.9878 28.1561 14.9614C29.0006 14.7758 29.5528 13.9354 29.411 13.062C29.2748 12.2241 28.5003 11.6568 27.6044 11.7389C26.7926 11.8132 26.1926 12.5341 26.205 13.4201C26.2167 14.2539 26.8823 14.9379 27.7844 14.9874Z" fill="url(#paint3_linear_1709_3406)"/>
</g>
<path d="M54.168 29.312C58.584 29.312 61.32 27.008 61.32 24.008C61.32 21.368 59.472 19.832 57.144 19.064L54.624 18.2C52.848 17.6 51.144 17.072 51.144 15.824C51.144 14.528 52.608 13.928 54.264 13.928C56.088 13.928 57.624 14.552 58.992 15.56L60.84 13.256C59.136 11.72 56.784 10.88 54.288 10.88C50.376 10.88 47.544 13.064 47.544 16.04C47.544 18.704 49.776 20.216 51.768 20.912L54.312 21.776C56.184 22.424 57.696 22.928 57.696 24.296C57.696 25.616 56.088 26.24 54.24 26.24C52.368 26.24 50.184 25.376 48.744 24.176L46.704 26.648C48.672 28.352 51.336 29.312 54.168 29.312ZM79.68 29.288C82.368 29.288 84.336 28.4 86.064 26.696L84.144 24.368C83.064 25.4 81.576 26.192 79.848 26.192C76.512 26.192 74.328 23.936 74.328 20.072C74.328 16.28 76.488 13.928 79.8 13.928C81.36 13.928 82.656 14.6 83.712 15.488L85.656 13.208C84.312 11.984 82.344 10.88 79.752 10.88C74.472 10.88 70.704 14.36 70.704 20.192C70.704 26.096 74.568 29.288 79.68 29.288ZM95.448 29H98.808V22.304H102.072L106.368 29H110.376L105.504 21.68C107.88 20.936 109.464 19.208 109.464 16.592C109.464 12.488 106.272 11.168 102 11.168H95.448V29ZM98.808 19.496V14H101.688C104.448 14 105.96 14.624 105.96 16.592C105.96 18.512 104.472 19.496 101.688 19.496H98.808ZM126.024 29.312C130.728 29.312 133.728 26.888 133.728 21.008V11.168H130.176V21.32C130.176 25.016 128.4 26.24 126.024 26.24C123.648 26.24 121.92 25.016 121.92 21.32V11.168H118.44V21.008C118.44 26.912 121.416 29.312 126.024 29.312ZM141.048 29H144.24V21.584C144.24 19.88 144 17.384 143.832 15.68H143.928L145.632 19.928L148.92 27.416H150.96L154.248 19.928L155.976 15.68H156.096C155.904 17.384 155.664 19.88 155.664 21.584V29H158.904V11.168H154.968L151.416 19.568C150.984 20.672 150.552 21.824 150.072 22.976H149.976C149.544 21.824 149.064 20.672 148.632 19.568L144.984 11.168H141.048V29Z" fill="#F19237"/>
<defs>
<linearGradient id="paint0_linear_1709_3406" x1="22.844" y1="3.97363" x2="22.844" y2="34.5552" gradientUnits="userSpaceOnUse">
<stop offset="0.0208333" stop-color="#ED6C33"/>
<stop offset="0.270833" stop-color="#EE7B30" stop-opacity="0.9"/>
<stop offset="0.489583" stop-color="#F09236" stop-opacity="0.8"/>
<stop offset="0.734375" stop-color="#EE8031" stop-opacity="0.7"/>
<stop offset="1" stop-color="#D96929" stop-opacity="0.6"/>
</linearGradient>
<linearGradient id="paint1_linear_1709_3406" x1="7.39461" y1="27.0317" x2="7.39461" y2="31.7799" gradientUnits="userSpaceOnUse">
<stop offset="0.0208333" stop-color="#ED6C33"/>
<stop offset="0.270833" stop-color="#EE7B30" stop-opacity="0.9"/>
<stop offset="0.489583" stop-color="#F09236" stop-opacity="0.8"/>
<stop offset="0.734375" stop-color="#EE8031" stop-opacity="0.7"/>
<stop offset="1" stop-color="#D96929" stop-opacity="0.6"/>
</linearGradient>
<linearGradient id="paint2_linear_1709_3406" x1="27.8111" y1="8.81201" x2="27.8111" y2="17.9193" gradientUnits="userSpaceOnUse">
<stop offset="0.0208333" stop-color="#ED6C33"/>
<stop offset="0.270833" stop-color="#EE7B30" stop-opacity="0.9"/>
<stop offset="0.489583" stop-color="#F09236" stop-opacity="0.8"/>
<stop offset="0.734375" stop-color="#EE8031" stop-opacity="0.7"/>
<stop offset="1" stop-color="#D96929" stop-opacity="0.6"/>
</linearGradient>
<linearGradient id="paint3_linear_1709_3406" x1="27.8175" y1="10.7178" x2="27.8175" y2="15.9965" gradientUnits="userSpaceOnUse">
<stop offset="0.0208333" stop-color="#ED6C33"/>
<stop offset="0.270833" stop-color="#EE7B30" stop-opacity="0.9"/>
<stop offset="0.489583" stop-color="#F09236" stop-opacity="0.8"/>
<stop offset="0.734375" stop-color="#EE8031" stop-opacity="0.7"/>
<stop offset="1" stop-color="#D96929" stop-opacity="0.6"/>
</linearGradient>
<clipPath id="clip0_1709_3406">
<rect width="32" height="32.3441" fill="white" transform="translate(5 3)"/>
</clipPath>
</defs>
</svg>
